<?xml version="1.0" encoding="UTF-8"?>
<svg id="Camada_1" data-name="Camada 1" xmlns="http://www.w3.org/2000/svg" viewBox="0 0 95.43 96.93">
  <defs>
    <style>
      .cls-1 {
        fill: #0aa;
      }

      .cls-2 {
        fill: #fff;
      }

      .cls-3 {
        fill: #0a86c8;
      }
    </style>
  </defs>
  <rect class="cls-3" width="95.43" height="96.93"/>
  <polygon class="cls-2" points="28.05 80.92 30.55 80.92 30.55 75.92 35.35 75.92 35.35 73.56 30.55 73.56 30.55 70.47 36.15 70.47 36.15 68.11 28.05 68.11 28.05 80.92"/>
  <path class="cls-2" d="m48.32,71.06c-.71,0-1.32.16-1.83.49-.51.33-.92.75-1.23,1.27-.29-.57-.69-1-1.22-1.31-.53-.31-1.14-.46-1.83-.46-.56,0-1.07.11-1.52.34-.45.23-.83.55-1.12.96v-1.01h-2.44v9.57h2.44v-5.43c0-.65.17-1.17.51-1.55.34-.38.8-.57,1.39-.57s1.03.19,1.37.57c.34.38.51.9.51,1.55v5.43h2.44v-5.43c0-.65.17-1.17.51-1.55.34-.38.8-.57,1.39-.57s1.03.19,1.37.57c.34.38.51.9.51,1.55v5.43h2.44v-5.79c0-1.26-.33-2.25-1-2.98-.67-.72-1.56-1.08-2.68-1.08"/>
  <path class="cls-2" d="m60.3,76.52c0,.7-.19,1.26-.56,1.69-.37.43-.87.65-1.48.65s-1.1-.22-1.48-.65c-.37-.43-.56-1-.56-1.69v-5.17h-2.44v5.36c0,1.34.41,2.42,1.23,3.23.82.82,1.9,1.22,3.25,1.22s2.43-.41,3.25-1.22c.82-.82,1.23-1.89,1.23-3.23v-5.36h-2.44v5.17Z"/>
  <path class="cls-2" d="m70.82,76.08c-.3-.2-.64-.38-1.01-.53-.37-.15-.74-.27-1.1-.37-.37-.1-.7-.2-1.01-.3-.3-.1-.55-.23-.74-.39-.19-.16-.28-.35-.28-.57,0-.27.12-.48.36-.65.24-.17.57-.25.97-.25.98,0,1.76.36,2.36,1.06l1.38-1.44c-.36-.5-.87-.89-1.53-1.17-.66-.28-1.41-.41-2.26-.41-1.16,0-2.06.28-2.71.84-.65.56-.97,1.23-.97,2.02,0,.36.06.69.17.99.12.3.27.54.47.74.2.2.42.38.68.53.26.16.53.29.81.39.29.1.57.2.85.29.28.09.55.17.81.26.26.08.48.18.68.27.2.1.36.22.47.36.12.14.18.31.18.49,0,.31-.12.55-.37.73s-.6.27-1.05.27c-1.13,0-2.07-.41-2.8-1.22l-1.36,1.56c.43.5.99.9,1.67,1.19.69.29,1.47.43,2.35.43,1.25,0,2.22-.29,2.92-.86.7-.58,1.05-1.29,1.05-2.14,0-.49-.09-.91-.28-1.27-.19-.36-.44-.64-.74-.85"/>
  <path class="cls-2" d="m80.18,78.11c-.48.53-1.09.79-1.82.79s-1.33-.27-1.81-.8c-.48-.53-.72-1.18-.72-1.95s.24-1.44.73-1.98c.48-.54,1.09-.81,1.81-.81s1.34.27,1.82.81c.48.54.72,1.19.72,1.98s-.24,1.43-.72,1.96m1.82-5.61c-.89-.95-1.98-1.43-3.26-1.43-1.18,0-2.16.44-2.92,1.33v-1.04h-2.44v13.48h2.44v-4.87c.72.83,1.69,1.24,2.92,1.24,1.32,0,2.42-.48,3.29-1.45.87-.97,1.31-2.18,1.31-3.63s-.44-2.67-1.33-3.62"/>
  <path class="cls-1" d="m54.22,43.9c0,13.35,10.86,24.21,24.21,24.21h4.88v-11.91h-4.88c-6.78,0-12.3-5.52-12.3-12.31,0-6.42,4.94-11.7,11.22-12.25h0c3.35-.34,5.97-3.17,5.97-6.61v-5.35h-4.88c-13.35,0-24.21,10.86-24.21,24.21"/>
  <rect class="cls-1" x="28.05" y="29.45" width="12.09" height="12.1"/>
  <rect class="cls-2" x="12.1" y="29.45" width="15.95" height="12.1"/>
  <path class="cls-2" d="m40.14,12.1h-5.45c-3.67,0-6.64,2.98-6.64,6.64v10.71h12.1V12.1Z"/>
  <path class="cls-2" d="m28.05,58.9h5.43c3.67,0,6.64-2.97,6.64-6.64l.02.04v-10.75h-12.09v17.35Z"/>
  <path class="cls-2" d="m54.22,29.45h-14.07v12.1h14.19c.77-7.95,5.4-14.78,11.98-18.61v-10.84h-12.09v17.35Z"/>
</svg>